<svg baseProfile="full" height="240" version="1.1" width="240" xmlns="http://www.w3.org/2000/svg" xmlns:ev="http://www.w3.org/2001/xml-events" xmlns:xlink="http://www.w3.org/1999/xlink"><defs /><line fill="#800080" stroke="#d3d3d3" stroke-width="1" x1="144.00000000000003" x2="144.0000000000005" y1="78.00000000000001" y2="-1842.0000000000002" /><line fill="#800080" stroke="#d3d3d3" stroke-width="1" x1="160.8" x2="972.2270625421426" y1="84.00000000000003" y2="-1656.1109511103682" /><line fill="#800080" stroke="#d3d3d3" stroke-width="1" x1="168.00000000000003" x2="1638.8053307884381" y1="93.60000000000001" y2="-1140.5522105981554" /><line fill="#800080" stroke="#d3d3d3" stroke-width="1" x1="174.0" x2="2028.5775864750112" y1="108.00000000000001" y2="-388.9325665968389" /><line fill="#800080" stroke="#d3d3d3" stroke-width="1" x1="174.0" x2="2028.5775864750112" y1="132.0" y2="628.9325665968396" /><line fill="#800080" stroke="#d3d3d3" stroke-width="1" x1="168.0" x2="1638.8053307884377" y1="146.40000000000003" y2="1380.5522105981559" /><line fill="#800080" stroke="#d3d3d3" stroke-width="1" x1="160.79999999999998" x2="972.2270625421426" y1="156.0" y2="1896.1109511103682" /><line fill="#800080" stroke="#d3d3d3" stroke-width="1" x1="144.0" x2="143.99999999999974" y1="162.0" y2="2082.0" /><line fill="#800080" stroke="#d3d3d3" stroke-width="1" x1="95.99999999999999" x2="95.99999999999976" y1="161.99999999999997" y2="2082.0" /><line fill="#800080" stroke="#d3d3d3" stroke-width="1" x1="79.19999999999999" x2="-732.2270625421427" y1="155.99999999999997" y2="1896.1109511103682" /><line fill="#800080" stroke="#d3d3d3" stroke-width="1" x1="71.99999999999999" x2="-1398.805330788437" y1="146.39999999999998" y2="1380.5522105981565" /><line fill="#800080" stroke="#d3d3d3" stroke-width="1" x1="66.0" x2="-1788.5775864750112" y1="131.99999999999997" y2="628.9325665968387" /><line fill="#800080" stroke="#d3d3d3" stroke-width="1" x1="66.0" x2="-1788.577586475011" y1="107.99999999999999" y2="-388.93256659683976" /><line fill="#800080" stroke="#d3d3d3" stroke-width="1" x1="72.00000000000001" x2="-1398.8053307884375" y1="93.59999999999998" y2="-1140.552210598156" /><line fill="#800080" stroke="#d3d3d3" stroke-width="1" x1="79.2" x2="-732.2270625421417" y1="84.0" y2="-1656.1109511103687" /><line fill="#800080" stroke="#d3d3d3" stroke-width="1" x1="96.0" x2="96.00000000000047" y1="77.99999999999999" y2="-1842.0000000000002" /><polygon fill="red" points="174.0,100.80000000000001 156.0,78.00000000000001 84.00000000000001,77.99999999999999 66.0,100.80000000000001 66.0,139.20000000000002 83.99999999999999,162.0 156.0,162.0 174.0,139.20000000000002" stroke="red" stroke-width="1" /><polygon points="-12.0,-12.0 0,0 12.0,-12.0 0,12.0" stroke="black" stroke-width="1" transform="translate(120.0,120.0) rotate(-90.0)" /><line fill="#800080" stroke="black" stroke-width="1" x1="174.0" x2="174.0" y1="91.20000000000003" y2="148.8" /><polygon fill="black" points="174.0,88.80000000000003 222.0,88.80000000000003 222.0,93.60000000000002 174.0,93.60000000000001" stroke="black" stroke-width="1" /><polygon fill="black" points="174.0,146.40000000000003 222.0,146.40000000000003 222.0,151.20000000000002 174.0,151.20000000000002" stroke="black" stroke-width="1" /><polygon fill="black" points="153.6,134.4 134.4,134.4 134.4,105.6 153.6,105.60000000000001" stroke="black" stroke-width="1" /><circle cx="174.0" cy="78.00000000000001" fill="yellow" r="6.0" stroke="orange" stroke-width="1" /><circle cx="174.0" cy="162.0" fill="yellow" r="6.0" stroke="orange" stroke-width="1" /></svg>